<svg xmlns="http://www.w3.org/2000/svg" viewBox="0 0 64 64" role="img" aria-label="Sword">
  <rect width="64" height="64" rx="14" fill="#f8fafc"/>
  <path d="M32 4l7 8-5 9v19l12-12 8 8-15 11 3 6-10 7-10-7 3-6-15-11 8-8 12 12V21l-5-9 7-8z" fill="#1f2937" opacity=".12"/>
  <path d="M32 5l5 8-4 8v27l5 8-6 4-6-4 5-8V21l-4-8 5-8z" fill="none" stroke="#1f2937" stroke-width="3" stroke-linejoin="round"/>
  <path d="M15 32l12 8h10l12-8" fill="none" stroke="#1f2937" stroke-width="3" stroke-linecap="round"/>
</svg>
