<svg xmlns="http://www.w3.org/2000/svg" viewBox="0 0 64 64" role="img" aria-label="Sword">
  <rect width="64" height="64" rx="14" fill="#f8fafc"/>
  <path d="M32 4l7 7-3 8v22l12-9 7 8-17 8 2 6-8 6-8-6 2-6-17-8 7-8 12 9V19l-3-8 7-7z" fill="#1f2937" opacity=".1"/>
  <path d="M32 4l6 10-4 8v27l-2 9-2-9V22l-4-8 6-10z" fill="#e5e7eb" stroke="#1f2937" stroke-width="2.4" stroke-linejoin="round"/>
  <path d="M32 14v40M13 36c8-1 13 1 17 6h4c4-5 9-7 17-6M27 44h10M28 50h8M30 56h4" fill="none" stroke="#1f2937" stroke-width="3" stroke-linecap="round" stroke-linejoin="round"/>
</svg>
